<?xml version="1.0" encoding="UTF-8"?>
<svg id="Capa_2" xmlns="http://www.w3.org/2000/svg" viewBox="0 0 303 259.82">
  <defs>
    <style>
      .cls-1 {
        fill: #fff;
      }
    </style>
  </defs>
  <g id="Capa_1-2" data-name="Capa_1">
    <g>
      <path class="cls-1" d="M209.57,90.13c-4.05,1.49-7.11,2.03-9.2-1.09-.77-1.15-1.33-3-.98-4.25,3.26-11.55,6.09-23.29,12.77-33.55,9.67-14.85,23.39-21.98,41.05-21.66,1.26.02,2.53,0,3.36,0,2.01-5.2,3.36-10.37,5.93-14.84,2.33-4.05,5.48-7.99,9.16-10.81,8.86-6.78,18.55-3.8,25.54,1.56,2.43,1.86,2.74,4.62,1.05,7.23-1.6,2.47-4.03,3.12-6.75,2.07-1.4-.54-2.64-1.5-4-2.16-4.53-2.19-8.06-1.68-11.42,1.96-4.24,4.58-6.45,10.16-7.59,16.03.3.42.4.73.57.78,17.51,5.03,26.41,17.83,30.98,34.45,2.78,10.13,3.16,20.53,2.89,30.95-.13,4.89-4.25,7.1-8.69,4.89-.72-.36-1.41-.76-2.3-1.24-1.02,7.32-1.75,14.49-3.06,21.56-5,27.07-13.33,52.69-32.2,73.79-14.38,16.08-31.4,28.6-50.48,38.38-25.47,13.05-52.4,21.57-80.83,25.07-9.57,1.18-19.16.6-28.5-2-19.18-5.34-30.63-17.84-34.48-37.41-1.96-9.98-2.19-19.92-.53-30.23-1.03,1.42-2.19,2.76-3.08,4.27-6.56,11.17-13.04,22.38-19.61,33.55-2.13,3.62-4.24,7.28-6.67,10.69-7.24,10.14-19.05,10.03-26.2-.2C1.57,231.13.2,223.32.02,215.29c-.31-13.88,2.68-27.26,8.16-39.86,5.25-12.05,11.35-23.78,17.74-35.28,2.93-5.28,3.74-10.27,1.85-15.69-1.34-3.83-3.09-7.56-5.05-11.12-5.21-9.47-9.53-19.19-11.16-30.01-3.48-23.17,12.29-44.55,35.4-47.72,7.35-1.01,13.86,1.08,19.65,5.58,1.28.99,2.49,2.05,4.1,3.38.83-3.34,1.46-6.28,2.3-9.17,4.17-14.32,13.28-23.47,28.25-25.72,9.33-1.4,17.02,2.9,23.91,8.76.98.83,1.88,1.74,3.19,2.96,7.36-13.26,18.51-20.3,33.67-19.65,12.11.52,21.81,6.25,29.48,15.52,13.69,16.53,13.78,43.46-10.22,56.93,10,10.51,15.61,22.15,8.85,36.64-6.37,13.65-18.56,18.59-32.83,20.94,2.08,2.59,3.58,4.67,5.33,6.52.54.57,1.86.89,2.65.69,9.31-2.46,18.24-5.83,26.01-11.7,6.24-4.71,10.71-10.69,12.87-18.29,1.71-6.01,3.42-12.02,5.38-18.86ZM116.38,248.98c.03-.22.05-.44.08-.66,2.1,0,4.2.02,6.31,0,.7,0,1.4-.11,2.09-.21,29.05-4.13,56.65-12.71,82.31-27.07,24.23-13.57,44.69-31.21,57.09-56.57,9.91-20.26,14.16-42.11,16.27-64.47.48-5.07-.72-8.26-5.42-10.55-2.27-1.11-3.83-1.33-6.03-.19-5.17,2.7-10.52,5.05-15.69,7.75-3.28,1.72-5.92,1.22-8.6-1.17-4.36-3.89-8.86-7.62-13.3-11.4-3.61-3.07-8.53-1.53-9.76,3.06-1.69,6.31-3.53,12.58-4.97,18.95-4.19,18.65-15.81,30.91-33.07,37.98-7.3,2.99-14.93,5.56-22.66,7.04-13.74,2.64-27.73,3.94-41.48,6.52-7.04,1.32-14.1,3.5-20.61,6.47-21.71,9.89-30.63,28.96-25.8,52.37,3.22,15.62,11.78,25.93,27.38,29.76,5.17,1.27,10.57,1.63,15.86,2.41ZM124.61,91.45c4.91,2.62,12.21,3.46,17.09,2.15,3.89-1.04,6.7.16,7.72,3.3,1.07,3.28-.63,6.26-4.48,7.43-1.77.54-3.65.86-5.5.98-9,.57-17.35-1.63-25.2-5.98-.9-.5-2.44-1.04-3.07-.62-4.74,3.11-9.32,6.46-14.53,10.14,7.84,3.95,15.03,6.71,23,6.99,3.65.13,5.9,2.33,5.9,5.57,0,3.24-2.28,5.5-5.88,5.59-1.74.04-3.51-.1-5.23-.36-9.21-1.42-17.78-4.62-25.59-9.55-31.25,31.2-50.22,69.13-63.15,110.51,1.07-1.24,1.96-2.59,2.77-3.99,6.21-10.83,12.06-21.9,18.69-32.47,8.45-13.48,18.77-25.11,34.8-29.94.65-.19,1.16-.8,1.79-1.09,7.69-3.59,15.08-8.28,23.15-10.45,10.97-2.95,22.47-3.97,33.74-5.82,3.36-.55,6.73-1.07,10.61-1.68-1.62-2.02-2.78-3.47-3.94-4.92-1.17-1.46-2.4-2.87-3.51-4.38-2.84-3.88-1.63-7.9,2.98-9.34,5.01-1.57,10.18-2.63,15.14-4.31,3.93-1.33,8.09-2.67,11.4-5.05,9.7-6.97,11.17-18.31,3.72-27.61-2.59-3.24-5.9-5.97-9.13-8.62-2.19-1.8-4.25-3.46-3.64-6.59.59-3.06,2.94-4.07,5.73-4.87,8.65-2.47,15.36-7.37,18.36-16.24,4.82-14.29-4.55-31.3-19.77-36.07-14.94-4.68-28.11,2.95-32.64,18.98-.72,2.53-1.86,4.56-4.67,5.08-2.96.55-4.68-1.1-6.42-3.25-2.55-3.17-5.17-6.4-8.27-8.98-10.15-8.44-22.85-6.2-29.61,5.18-1.64,2.76-2.59,5.97-3.55,9.06-1.52,4.9-2.69,9.91-4.16,14.82-1.75,5.83-6.02,6.91-10.58,2.8-2.69-2.43-5.33-4.91-8.1-7.24-3.76-3.17-8.1-4.44-13.04-3.74-16.17,2.29-27.24,17.83-24.88,34.91,1.17,8.47,4.56,16.1,8.49,23.58,2.54,4.84,5.15,9.72,7.01,14.84,3.28,9.04,2.33,17.56-2.86,26.09-5.74,9.44-10.76,19.4-15.25,29.5-5.63,12.66-9.24,25.98-8.76,40.04.12,3.67,1.03,7.32,1.58,10.97,1.06-.56,1.23-.99,1.38-1.42,12.16-36.57,27.46-71.48,52.9-101.12.67-.78.78-2.62.38-3.66-2.95-7.68-3.35-15.53-1.46-23.42.86-3.58,2.36-7.08,4.05-10.37,1.77-3.45,5.1-4.28,7.96-2.55,2.73,1.65,3.41,4.71,1.75,7.97-.32.62-.73,1.2-1.02,1.83-2.67,5.86-3.52,11.89-1.91,18.57,4.5-4.25,8.57-8.25,12.81-12.05,1.67-1.5,2.46-2.87,2.49-5.3.14-12.27,5.22-22.34,14.58-30.21,3.19-2.68,6.54-2.5,8.71.07,2.28,2.7,1.45,5.73-1.75,8.79-2.58,2.48-4.92,5.29-6.93,8.25-1.33,1.96-1.89,4.44-2.6,6.19,9.83-4.01,19.47-8.07,29.22-11.84,3.84-1.48,6.95.05,7.99,3.28,1.03,3.18-.78,5.99-4.65,7.33-3.95,1.36-7.89,2.77-12.15,4.28ZM291.06,86.39c.42-.19.83-.38,1.25-.57-1.33-6.6-2.12-13.36-4.08-19.77-6.94-22.65-32.27-32.68-53.3-21.38-10.47,5.63-15.81,15.17-19.6,25.86-.59,1.66-1.01,3.38-1.67,5.6,4.79-1.94,8.92-3.54,12.99-5.27,2.9-1.23,5.36-.85,7.74,1.25,4.55,4.02,9.29,7.83,13.8,11.89,1.62,1.45,2.88,1.76,4.88.7,5.06-2.66,10.32-4.93,15.37-7.6,3.17-1.67,5.87-1.47,8.81.52,4.51,3.06,9.2,5.86,13.81,8.77Z"/>
      <path class="cls-1" d="M92.62,197.16c-5.39.12-8.44-4.63-5.75-8.35,3.02-4.17,6.62-8.27,10.81-11.18,10.04-6.96,21.8-9.24,33.73-10.58,1.16-.13,2.32-.31,3.48-.42,3.49-.35,6.25,1.58,6.71,4.68.47,3.16-1.51,5.69-5.05,6.37-7.21,1.38-14.53,2.33-21.61,4.2-7.67,2.02-14.57,5.62-18.95,12.85-.79,1.31-2.67,1.95-3.37,2.44Z"/>
    </g>
  </g>
</svg>